<svg version="1.1" id="Layer_1" xmlns="http://www.w3.org/2000/svg" xmlns:xlink="http://www.w3.org/1999/xlink" x="0px" y="0px"
	 width="100%" viewBox="0 0 400 400" enable-background="new 0 0 400 400" xml:space="preserve">
<path fill="#000000" opacity="1.000000" stroke="none" 
	d="
M232.000000,401.000000 
	C154.666672,401.000000 77.833336,401.000000 1.000000,401.000000 
	C1.000000,267.666656 1.000000,134.333328 1.000000,1.000000 
	C134.333328,1.000000 267.666656,1.000000 401.000000,1.000000 
	C401.000000,134.333328 401.000000,267.666656 401.000000,401.000000 
	C344.833344,401.000000 288.666656,401.000000 232.000000,401.000000 
M62.751766,239.670822 
	C66.550156,244.183594 69.518082,250.073959 74.299355,252.956314 
	C89.972939,262.404999 106.664871,262.153778 122.661514,253.732849 
	C133.073364,248.251816 138.001465,238.684006 137.143188,226.719101 
	C136.308472,215.082428 129.808319,207.435684 119.404495,202.794571 
	C117.702881,202.035507 115.968307,201.350296 113.949432,200.505630 
	C114.755272,199.994995 115.150795,199.707581 115.579269,199.483078 
	C116.020203,199.252075 116.509865,199.113785 116.949829,198.881271 
	C126.435501,193.868134 131.725693,186.049362 132.004303,175.286499 
	C132.276779,164.760300 127.718803,156.539841 118.648811,151.203079 
	C108.792877,145.403915 98.188255,144.631393 87.325996,147.875305 
	C75.676682,151.354263 67.756126,158.525772 66.141922,171.082108 
	C64.597954,183.092117 70.181747,192.743896 81.842636,199.208893 
	C82.371323,199.501999 82.785133,200.002319 83.346268,200.487198 
	C64.250854,208.492783 57.055542,221.840775 62.751766,239.670822 
M264.492310,245.003021 
	C294.750916,271.987579 337.884308,256.209320 347.007294,233.876068 
	C344.443268,234.918655 341.943512,236.182236 340.127747,238.095123 
	C326.079926,252.894424 308.976990,258.662567 289.305969,253.574295 
	C269.381897,248.420578 256.706177,235.082809 252.812088,214.706299 
	C249.021194,194.869797 254.509888,177.599854 270.426270,164.619904 
	C291.621918,147.334671 321.959686,150.554886 340.386169,171.702499 
	C342.525482,174.157715 344.373871,176.568314 348.348663,174.386612 
	C334.265747,155.392685 315.781555,146.809586 292.571350,150.523712 
	C271.184143,153.946121 256.169952,166.240997 249.819595,187.075867 
	C243.246918,208.640198 247.503403,228.263092 264.492310,245.003021 
M178.593658,226.093872 
	C182.498413,235.277878 186.340988,244.489349 190.371048,253.618027 
	C191.018478,255.084549 192.502930,256.181549 193.600449,257.449371 
	C194.689850,256.134613 196.164810,254.985672 196.811966,253.480728 
	C210.939636,220.627502 224.978516,187.736084 239.012527,154.842636 
	C239.419220,153.889450 239.587311,152.834457 239.867371,151.824341 
	C236.556442,150.806824 235.087952,151.882965 233.879959,154.754456 
	C221.437500,184.331131 208.841644,213.843262 196.282150,243.370697 
	C195.545944,245.101532 194.754944,246.809082 193.673996,249.235580 
	C192.550659,246.847519 191.795059,245.375046 191.152222,243.854874 
	C178.714066,214.441330 166.256866,185.035721 153.908310,155.584564 
	C152.586441,152.431900 151.198944,150.271759 147.117661,152.067047 
	C157.488632,176.527863 167.855606,200.979248 178.593658,226.093872 
z"/>
<path fill="#C1C1C1" opacity="1.000000" stroke="none" 
	d="
M62.574680,239.326004 
	C57.055542,221.840775 64.250854,208.492783 83.346268,200.487198 
	C82.785133,200.002319 82.371323,199.501999 81.842636,199.208893 
	C70.181747,192.743896 64.597954,183.092117 66.141922,171.082108 
	C67.756126,158.525772 75.676682,151.354263 87.325996,147.875305 
	C98.188255,144.631393 108.792877,145.403915 118.648811,151.203079 
	C127.718803,156.539841 132.276779,164.760300 132.004303,175.286499 
	C131.725693,186.049362 126.435501,193.868134 116.949829,198.881271 
	C116.509865,199.113785 116.020203,199.252075 115.579269,199.483078 
	C115.150795,199.707581 114.755272,199.994995 113.949432,200.505630 
	C115.968307,201.350296 117.702881,202.035507 119.404495,202.794571 
	C129.808319,207.435684 136.308472,215.082428 137.143188,226.719101 
	C138.001465,238.684006 133.073364,248.251816 122.661514,253.732849 
	C106.664871,262.153778 89.972939,262.404999 74.299355,252.956314 
	C69.518082,250.073959 66.550156,244.183594 62.574680,239.326004 
M121.359032,208.983917 
	C107.066635,200.903366 92.451897,200.643112 78.041718,208.168304 
	C69.661613,212.544525 65.009285,220.061310 65.210922,229.721298 
	C65.417740,239.629776 70.754547,246.631836 79.425964,250.929840 
	C90.543465,256.440247 102.210876,256.677887 113.828606,252.895187 
	C123.414200,249.774155 130.380463,243.614716 132.261307,233.199692 
	C134.083908,223.107269 129.742493,215.445572 121.359032,208.983917 
M116.976616,193.674332 
	C125.210793,187.757721 128.716583,179.699066 126.892250,169.788528 
	C125.183617,160.506500 118.787109,155.125702 110.124352,152.436905 
	C101.240707,149.679535 92.389236,150.029266 83.843796,153.965973 
	C73.618034,158.676788 69.311134,167.212097 70.422173,177.862289 
	C71.223618,185.544785 76.064461,191.590546 83.208275,194.892502 
	C94.273560,200.007050 105.421104,199.817856 116.976616,193.674332 
z"/>
<path fill="#BFBFBF" opacity="1.000000" stroke="none" 
	d="
M264.241089,244.752319 
	C247.503403,228.263092 243.246918,208.640198 249.819595,187.075867 
	C256.169952,166.240997 271.184143,153.946121 292.571350,150.523712 
	C315.781555,146.809586 334.265747,155.392685 348.348663,174.386612 
	C344.373871,176.568314 342.525482,174.157715 340.386169,171.702499 
	C321.959686,150.554886 291.621918,147.334671 270.426270,164.619904 
	C254.509888,177.599854 249.021194,194.869797 252.812088,214.706299 
	C256.706177,235.082809 269.381897,248.420578 289.305969,253.574295 
	C308.976990,258.662567 326.079926,252.894424 340.127747,238.095123 
	C341.943512,236.182236 344.443268,234.918655 347.007294,233.876068 
	C337.884308,256.209320 294.750916,271.987579 264.241089,244.752319 
z"/>
<path fill="#C1C1C1" opacity="1.000000" stroke="none" 
	d="
M178.408112,225.762253 
	C167.855606,200.979248 157.488632,176.527863 147.117661,152.067047 
	C151.198944,150.271759 152.586441,152.431900 153.908310,155.584564 
	C166.256866,185.035721 178.714066,214.441330 191.152222,243.854874 
	C191.795059,245.375046 192.550659,246.847519 193.673996,249.235580 
	C194.754944,246.809082 195.545944,245.101532 196.282150,243.370697 
	C208.841644,213.843262 221.437500,184.331131 233.879959,154.754456 
	C235.087952,151.882965 236.556442,150.806824 239.867371,151.824341 
	C239.587311,152.834457 239.419220,153.889450 239.012527,154.842636 
	C224.978516,187.736084 210.939636,220.627502 196.811966,253.480728 
	C196.164810,254.985672 194.689850,256.134613 193.600449,257.449371 
	C192.502930,256.181549 191.018478,255.084549 190.371048,253.618027 
	C186.340988,244.489349 182.498413,235.277878 178.408112,225.762253 
z"/>
<path fill="#030303" opacity="1.000000" stroke="none" 
	d="
M121.670158,209.177368 
	C129.742493,215.445572 134.083908,223.107269 132.261307,233.199692 
	C130.380463,243.614716 123.414200,249.774155 113.828606,252.895187 
	C102.210876,256.677887 90.543465,256.440247 79.425964,250.929840 
	C70.754547,246.631836 65.417740,239.629776 65.210922,229.721298 
	C65.009285,220.061310 69.661613,212.544525 78.041718,208.168304 
	C92.451897,200.643112 107.066635,200.903366 121.670158,209.177368 
z"/>
<path fill="#030303" opacity="1.000000" stroke="none" 
	d="
M116.644119,193.850586 
	C105.421104,199.817856 94.273560,200.007050 83.208275,194.892502 
	C76.064461,191.590546 71.223618,185.544785 70.422173,177.862289 
	C69.311134,167.212097 73.618034,158.676788 83.843796,153.965973 
	C92.389236,150.029266 101.240707,149.679535 110.124352,152.436905 
	C118.787109,155.125702 125.183617,160.506500 126.892250,169.788528 
	C128.716583,179.699066 125.210793,187.757721 116.644119,193.850586 
z"/>
</svg>