<svg version="1.1" id="Layer_1" xmlns="http://www.w3.org/2000/svg" xmlns:xlink="http://www.w3.org/1999/xlink" x="0px" y="0px"
	 width="100%" viewBox="0 0 660 660" enable-background="new 0 0 660 660" xml:space="preserve">
<path fill="#D3FB52" opacity="1.000000" stroke="none" 
	d="
M436.000000,661.000000 
	C290.666656,661.000000 145.833328,661.000000 1.000000,661.000000 
	C1.000000,441.000000 1.000000,221.000000 1.000000,1.000000 
	C221.000000,1.000000 441.000000,1.000000 661.000000,1.000000 
	C661.000000,221.000000 661.000000,441.000000 661.000000,661.000000 
	C586.166687,661.000000 511.333344,661.000000 436.000000,661.000000 
M356.654205,297.152161 
	C336.321960,313.771027 315.989716,330.389893 294.852661,347.666534 
	C307.523682,275.511871 319.996948,204.483231 332.503906,133.262726 
	C306.979797,133.262726 282.060181,133.262726 256.944305,133.262726 
	C233.658569,265.162933 210.412003,396.841156 187.132874,528.703857 
	C212.456787,528.703857 237.543625,528.703857 262.683990,528.703857 
	C263.190399,525.816223 263.645325,523.204407 264.106781,520.593689 
	C269.839783,488.158356 275.527344,455.714752 281.410278,423.306580 
	C281.809814,421.105499 283.227966,418.631836 284.938019,417.198151 
	C299.102692,405.322815 313.443024,393.656799 327.740051,381.939514 
	C338.265320,373.313477 348.805420,364.705505 360.287170,355.313843 
	C349.894989,413.861847 339.717468,471.200439 329.508240,528.717773 
	C355.091248,528.717773 379.997589,528.717773 405.101105,528.717773 
	C428.376129,396.805725 451.608704,265.134247 474.866974,133.317017 
	C449.476562,133.317017 424.391571,133.317017 399.306976,133.317017 
	C391.542969,177.362946 383.215698,221.005890 376.481140,264.893219 
	C374.319702,278.978821 369.335754,289.544312 356.654205,297.152161 
z"/>
<path fill="#062426" opacity="1.000000" stroke="none" 
	d="
M356.938782,296.941284 
	C369.335754,289.544312 374.319702,278.978821 376.481140,264.893219 
	C383.215698,221.005890 391.542969,177.362946 399.306976,133.317017 
	C424.391571,133.317017 449.476562,133.317017 474.866974,133.317017 
	C451.608704,265.134247 428.376129,396.805725 405.101105,528.717773 
	C379.997589,528.717773 355.091248,528.717773 329.508240,528.717773 
	C339.717468,471.200439 349.894989,413.861847 360.287170,355.313843 
	C348.805420,364.705505 338.265320,373.313477 327.740051,381.939514 
	C313.443024,393.656799 299.102692,405.322815 284.938019,417.198151 
	C283.227966,418.631836 281.809814,421.105499 281.410278,423.306580 
	C275.527344,455.714752 269.839783,488.158356 264.106781,520.593689 
	C263.645325,523.204407 263.190399,525.816223 262.683990,528.703857 
	C237.543625,528.703857 212.456787,528.703857 187.132874,528.703857 
	C210.412003,396.841156 233.658569,265.162933 256.944305,133.262726 
	C282.060181,133.262726 306.979797,133.262726 332.503906,133.262726 
	C319.996948,204.483231 307.523682,275.511871 294.852661,347.666534 
	C315.989716,330.389893 336.321960,313.771027 356.938782,296.941284 
z"/>
</svg>