<svg version="1.1" id="Layer_1" xmlns="http://www.w3.org/2000/svg" xmlns:xlink="http://www.w3.org/1999/xlink" x="0px" y="0px"
	 width="100%" viewBox="0 0 150 202" enable-background="new 0 0 150 202" xml:space="preserve">
<path fill="#242020" opacity="1.000000" stroke="none" 
	d="
M72.000000,203.000000 
	C48.016697,203.000000 24.533396,203.000000 1.025047,203.000000 
	C1.025047,135.731216 1.025047,68.462418 1.025047,1.096812 
	C50.899765,1.096812 100.799782,1.096812 150.849899,1.096812 
	C150.849899,68.333069 150.849899,135.666504 150.849899,203.000000 
	C124.796059,203.000000 98.648033,203.000000 72.000000,203.000000 
M94.955917,113.017532 
	C94.955917,113.017532 94.886612,113.069733 94.984459,113.687202 
	C95.334290,114.062378 95.684113,114.437561 96.676575,114.916962 
	C97.537872,114.485191 98.399178,114.053429 99.849159,113.250763 
	C107.760284,105.732780 112.477516,96.329796 115.200294,85.886566 
	C118.934486,93.737877 113.919785,99.963043 111.557808,106.804504 
	C118.600594,106.519501 120.049393,105.286484 120.491241,99.491699 
	C120.933472,93.691879 120.884712,87.830589 121.712288,82.091576 
	C122.411186,77.244904 120.785957,74.133759 116.927483,72.051796 
	C113.226265,75.036674 109.908173,78.362541 105.975830,80.616989 
	C103.927048,81.791573 99.860039,82.196259 98.373215,80.953094 
	C96.167923,79.109200 95.132477,75.583046 94.268417,72.580368 
	C93.987320,71.603523 95.575127,69.271233 96.719368,68.927391 
	C97.909752,68.569679 100.094215,69.459915 100.964317,70.523872 
	C102.797035,72.764870 104.054794,75.476067 105.526405,77.957062 
	C110.798004,76.184868 112.692917,73.017700 111.085831,67.583023 
	C109.677437,62.820271 108.905579,57.869293 107.927704,52.452614 
	C107.692856,52.154953 107.458008,51.857292 107.223167,51.559628 
	C106.881729,52.040745 106.540291,52.521862 105.736519,53.649139 
	C104.342567,53.898746 102.854156,54.593792 101.570847,54.321655 
	C95.686417,53.073818 89.821350,52.697865 84.732269,56.317822 
	C79.037064,60.368927 73.963905,65.145920 72.500969,72.512848 
	C66.344460,67.997704 61.541424,60.050350 62.279293,53.623867 
	C63.984676,38.770786 74.722015,32.490673 87.703445,28.579590 
	C76.605995,27.179571 66.785957,29.765879 57.329483,36.071190 
	C55.553486,36.792862 53.777489,37.514534 51.295799,38.479774 
	C40.931473,45.751907 34.264496,55.114811 35.139351,68.361504 
	C35.397751,72.274048 36.647961,76.121086 37.179901,80.496918 
	C37.124996,80.676796 37.070095,80.856667 36.322136,80.745979 
	C34.951218,75.520401 33.580299,70.294830 32.272678,65.310539 
	C27.138113,81.785316 31.891438,97.005539 44.897667,107.195511 
	C44.757374,107.393250 44.617077,107.590988 43.837059,107.638100 
	C43.230305,107.405533 42.623550,107.172966 41.717583,106.451775 
	C41.194275,106.245415 40.670967,106.039047 39.870495,105.308907 
	C39.345612,105.260712 38.820732,105.212517 37.461910,105.087753 
	C38.649879,105.879082 39.118114,106.190979 39.835224,107.057976 
	C40.528431,107.778152 41.221638,108.498322 42.134426,109.841835 
	C46.440666,113.397789 50.457001,117.405243 55.122849,120.401138 
	C61.698078,124.623047 69.242088,125.853836 77.012581,124.992294 
	C82.752792,124.355858 84.504456,121.916031 83.718727,116.993599 
	C84.142014,117.006615 84.565300,117.019630 85.207680,117.542191 
	C85.321228,117.688103 85.434769,117.834023 85.467278,118.429031 
	C85.570564,118.829094 85.673843,119.229149 85.777130,119.629211 
	C86.168495,119.080849 86.559853,118.532494 87.431923,117.338486 
	C87.667221,115.188248 87.902527,113.038017 88.137825,110.887779 
	C88.423401,110.832840 88.708969,110.777893 88.994537,110.722954 
	C89.475166,112.619667 89.955803,114.516388 90.436432,116.413109 
	C90.823517,116.485764 91.210602,116.558418 91.597687,116.631073 
	C92.147926,112.796387 92.698166,108.961700 93.458717,103.661385 
	C94.181213,107.029243 94.607132,109.014618 94.874908,111.348320 
	C94.874908,111.348320 94.896393,111.730255 94.418579,111.982719 
	C94.590454,112.355659 94.762329,112.728600 94.955917,113.017532 
M57.189583,164.663284 
	C57.189583,158.046875 57.189583,151.430466 57.189583,144.761902 
	C54.661530,144.761902 52.585304,144.761902 50.123775,144.761902 
	C50.123775,150.695297 50.201660,156.315933 50.101665,161.933411 
	C50.003525,167.446808 47.793049,170.005646 43.435169,169.969269 
	C39.117676,169.933228 36.971348,167.342972 36.891594,161.805435 
	C36.810852,156.199615 36.873783,150.591736 36.873783,144.815125 
	C34.182186,144.815125 31.979548,144.815125 29.685486,144.815125 
	C29.685486,151.475388 29.354595,157.784332 29.766966,164.044327 
	C30.316013,172.379181 34.708344,176.440430 42.704391,176.860672 
	C50.547661,177.272873 55.377197,173.474442 57.189583,164.663284 
M113.464859,151.033981 
	C117.060493,151.033981 120.656120,151.033981 124.198158,151.033981 
	C124.198158,148.550797 124.198158,146.665710 124.198158,144.698288 
	C116.088013,144.698288 108.351105,144.698288 100.369919,144.698288 
	C100.369919,155.191757 100.369919,165.419815 100.369919,175.901978 
	C102.571167,175.901978 104.779106,175.901978 107.311325,175.901978 
	C107.311325,171.834412 107.311325,168.073990 107.311325,163.836548 
	C112.532242,163.836548 117.431816,163.836548 122.608521,163.836548 
	C122.499664,161.441010 122.414101,159.557907 122.307869,157.220093 
	C116.991966,157.220093 112.242683,157.220093 107.376755,157.220093 
	C107.376755,154.957321 107.376755,153.181976 107.376755,151.033997 
	C109.174431,151.033997 110.817337,151.033997 113.464859,151.033981 
M65.919479,152.650650 
	C62.204239,162.088806 64.946472,171.063004 72.756966,175.026840 
	C80.026337,178.716095 89.105553,176.739151 93.129204,170.464737 
	C91.750412,169.149750 90.350311,167.814453 89.038025,166.562897 
	C82.492050,170.883514 78.310814,171.069321 74.669281,167.469330 
	C71.200905,164.040512 70.629707,158.077789 73.751526,154.258469 
	C74.931396,152.814987 76.921051,151.075821 78.503151,151.112854 
	C82.085037,151.196686 85.643036,152.301071 89.735641,153.091873 
	C90.596230,152.084427 91.967407,150.479263 93.336983,148.875977 
	C84.038803,141.001984 73.027794,142.390137 65.919479,152.650650 
M82.973770,45.792477 
	C84.618965,44.006649 86.264160,42.220821 87.827629,40.523705 
	C86.214676,39.177101 84.396324,37.659019 82.712151,36.252960 
	C80.968552,37.772858 79.264473,39.258301 77.853226,40.488480 
	C79.228149,42.155033 80.847870,44.118309 82.973770,45.792477 
z"/>
<path fill="#EDC013" opacity="1.000000" stroke="none" 
	d="
M85.548317,117.979935 
	C85.434769,117.834023 85.321228,117.688103 85.071579,117.038696 
	C83.819099,116.107704 82.702713,115.680199 81.586334,115.252693 
	C82.085640,115.845131 82.584946,116.437569 83.084251,117.030006 
	C84.504456,121.916031 82.752792,124.355858 77.012581,124.992294 
	C69.242088,125.853836 61.698078,124.623047 55.122849,120.401138 
	C50.457001,117.405243 46.440666,113.397789 42.050064,109.150833 
	C41.982731,107.953362 41.999763,107.446877 42.016796,106.940399 
	C42.623550,107.172966 43.230305,107.405533 44.340424,107.848152 
	C45.111423,108.220558 45.401745,108.300240 45.912804,108.529556 
	C46.860252,109.064423 47.609657,109.366989 48.675407,109.845268 
	C57.876747,114.110405 67.336334,114.956078 77.237015,115.099159 
	C78.260941,114.953407 78.990723,114.680672 79.720505,114.407936 
	C78.790161,113.947136 77.859825,113.486336 76.481621,113.086380 
	C67.155281,111.616547 58.276806,110.085876 49.155128,108.345306 
	C48.117985,107.827675 47.324039,107.519943 46.357224,107.072693 
	C45.934284,106.760155 45.657906,106.659035 45.355213,106.629814 
	C31.891438,97.005539 27.138113,81.785316 32.272678,65.310539 
	C33.580299,70.294830 34.951218,75.520401 36.813255,81.211548 
	C38.812023,85.657005 40.171669,89.779190 45.770321,89.889404 
	C42.994766,86.592323 40.219215,83.295235 37.443661,79.998146 
	C36.647961,76.121086 35.397751,72.274048 35.139351,68.361504 
	C34.264496,55.114811 40.931473,45.751907 51.698830,38.681870 
	C52.058113,39.913708 52.014374,40.943451 51.650696,42.058350 
	C50.883343,42.843437 50.435925,43.543373 49.738304,44.466751 
	C43.565731,56.282642 45.093925,67.620949 54.109901,78.318207 
	C60.570862,85.866669 68.257233,90.900543 77.180428,93.720367 
	C69.795876,88.133293 62.409100,82.544525 54.894726,76.637299 
	C47.634094,66.583351 45.796539,56.212822 51.242039,44.767670 
	C51.658802,43.702389 51.844429,42.866039 52.364723,41.970734 
	C54.466808,40.018974 56.234226,38.126175 58.001640,36.233379 
	C66.785957,29.765879 76.605995,27.179571 87.703445,28.579590 
	C74.722015,32.490673 63.984676,38.770786 62.279293,53.623867 
	C61.541424,60.050350 66.344460,67.997704 72.498611,72.511086 
	C73.963905,65.145920 79.037064,60.368927 84.732269,56.317822 
	C89.821350,52.697865 95.686417,53.073818 101.570847,54.321655 
	C102.854156,54.593792 104.342567,53.898746 106.243301,53.325874 
	C107.117577,53.002224 107.485069,53.001842 107.852554,53.001465 
	C108.905579,57.869293 109.677437,62.820271 111.085831,67.583023 
	C112.692917,73.017700 110.798004,76.184868 105.526405,77.957062 
	C104.054794,75.476067 102.797035,72.764870 100.964317,70.523872 
	C100.094215,69.459915 97.909752,68.569679 96.719368,68.927391 
	C95.575127,69.271233 93.987320,71.603523 94.268417,72.580368 
	C95.132477,75.583046 96.167923,79.109200 98.373215,80.953094 
	C99.860039,82.196259 103.927048,81.791573 105.975830,80.616989 
	C109.908173,78.362541 113.226265,75.036674 116.927483,72.051796 
	C120.785957,74.133759 122.411186,77.244904 121.712288,82.091576 
	C120.884712,87.830589 120.933472,93.691879 120.491241,99.491699 
	C120.049393,105.286484 118.600594,106.519501 111.557808,106.804504 
	C113.919785,99.963043 118.934486,93.737877 115.200294,85.886566 
	C112.477516,96.329796 107.760284,105.732780 99.445221,113.046768 
	C97.705215,112.228523 96.369141,111.614258 95.033058,111.000000 
	C94.607132,109.014618 94.181213,107.029243 93.458717,103.661385 
	C92.698166,108.961700 92.147926,112.796387 91.597687,116.631073 
	C91.210602,116.558418 90.823517,116.485764 90.436432,116.413109 
	C89.955803,114.516388 89.475166,112.619667 88.994537,110.722954 
	C88.708969,110.777893 88.423401,110.832840 88.137825,110.887779 
	C87.902527,113.038017 87.667221,115.188248 86.957718,117.662773 
	C86.171768,117.984703 85.860039,117.982330 85.548317,117.979935 
M85.651810,97.217842 
	C85.591400,97.475563 85.530998,97.733292 85.470596,97.991013 
	C85.660393,97.670143 85.850189,97.349274 86.226440,96.914627 
	C86.226440,96.914627 86.225388,96.632683 86.225388,96.632683 
	C86.225388,96.632683 85.973404,96.963203 85.651810,97.217842 
M65.552399,101.045334 
	C65.722549,101.041763 65.892700,101.038193 66.338196,101.724449 
	C72.124336,103.584763 77.910477,105.445076 84.155876,107.828377 
	C84.427086,107.383781 84.698296,106.939178 84.440292,105.971733 
	C78.305199,104.335388 72.170097,102.699036 65.979828,100.613564 
	C65.834488,100.375153 65.689140,100.136734 65.543800,99.898323 
	C65.339607,100.250237 65.135422,100.602158 64.746445,101.080330 
	C64.746445,101.080330 64.762291,101.384422 64.762291,101.384422 
	C64.762291,101.384422 65.042099,101.061737 65.552399,101.045334 
M83.091255,97.197655 
	C83.091255,97.197655 83.350159,97.212685 83.350159,97.212685 
	C83.350159,97.212685 83.002777,96.997925 82.996971,96.427834 
	C82.043755,95.487282 81.090546,94.546730 80.137337,93.606171 
	C79.796257,94.129997 79.455185,94.653824 79.114105,95.177650 
	C80.408737,95.786003 81.703369,96.394363 83.091255,97.197655 
M49.889172,93.333473 
	C49.292282,92.999031 48.701340,92.651886 48.083355,92.362495 
	C48.047264,92.345596 47.792458,92.795753 47.639431,93.028564 
	C48.402683,93.377136 49.165936,93.725708 50.106750,94.699806 
	C51.436440,95.632538 52.766129,96.565277 54.095821,97.498009 
	C54.361591,97.019867 54.627357,96.541725 54.893127,96.063583 
	C53.283424,95.352936 51.673717,94.642296 49.889172,93.333473 
M97.876335,96.280182 
	C96.712395,94.575935 95.548447,92.871689 94.384506,91.167442 
	C93.876755,91.550064 93.369003,91.932686 92.861259,92.315308 
	C94.131889,94.275658 95.402527,96.236015 96.673157,98.196373 
	C97.093040,97.769569 97.512924,97.342766 97.876335,96.280182 
M90.290916,99.312363 
	C89.697449,99.626427 89.103989,99.940491 88.510521,100.254555 
	C89.589607,101.199974 90.668701,102.145393 91.747787,103.090813 
	C92.065216,102.736649 92.382645,102.382492 92.700073,102.028328 
	C92.094627,101.219353 91.489189,100.410378 90.290916,99.312363 
M83.200119,82.646217 
	C84.052910,83.695572 84.905693,84.744934 85.758484,85.794289 
	C86.181084,85.232422 86.603676,84.670547 87.026276,84.108681 
	C85.795990,83.413788 84.565712,82.718895 83.200119,82.646217 
M98.496773,109.710381 
	C98.854729,109.118721 99.212685,108.527069 99.570641,107.935417 
	C99.000946,107.781761 98.431244,107.628105 97.861549,107.474442 
	C97.869858,108.167839 97.878174,108.861237 98.496773,109.710381 
M57.082401,98.765381 
	C57.891621,98.657066 58.700840,98.548752 59.510056,98.440437 
	C59.303669,97.958893 59.097279,97.477341 58.890892,96.995796 
	C58.142143,97.482811 57.393394,97.969826 57.082401,98.765381 
M97.625481,100.726608 
	C98.012909,101.050079 98.387306,101.393723 98.808128,101.665497 
	C98.849754,101.692390 99.175194,101.279808 99.368912,101.071205 
	C98.911987,100.831879 98.455063,100.592552 97.625481,100.726608 
M61.671219,100.232178 
	C61.986748,99.931564 62.302277,99.630951 62.617809,99.330345 
	C62.431286,99.159523 62.244762,98.988708 62.058243,98.817894 
	C61.828022,99.190140 61.597801,99.562378 61.671219,100.232178 
M90.539192,86.507401 
	C90.539192,86.507401 90.483864,86.532074 90.539192,86.507401 
M80.384346,79.813805 
	C80.455513,79.614517 80.526672,79.415230 80.597839,79.215942 
	C80.398422,79.277641 80.198997,79.339333 80.384346,79.813805 
z"/>
<path fill="#F2F1F2" opacity="1.000000" stroke="none" 
	d="
M57.165245,165.084808 
	C55.377197,173.474442 50.547661,177.272873 42.704391,176.860672 
	C34.708344,176.440430 30.316013,172.379181 29.766966,164.044327 
	C29.354595,157.784332 29.685486,151.475388 29.685486,144.815125 
	C31.979548,144.815125 34.182186,144.815125 36.873783,144.815125 
	C36.873783,150.591736 36.810852,156.199615 36.891594,161.805435 
	C36.971348,167.342972 39.117676,169.933228 43.435169,169.969269 
	C47.793049,170.005646 50.003525,167.446808 50.101665,161.933411 
	C50.201660,156.315933 50.123775,150.695297 50.123775,144.761902 
	C52.585304,144.761902 54.661530,144.761902 57.189583,144.761902 
	C57.189583,151.430466 57.189583,158.046875 57.165245,165.084808 
z"/>
<path fill="#EFEFEF" opacity="1.000000" stroke="none" 
	d="
M112.962555,151.033997 
	C110.817337,151.033997 109.174431,151.033997 107.376755,151.033997 
	C107.376755,153.181976 107.376755,154.957321 107.376755,157.220093 
	C112.242683,157.220093 116.991966,157.220093 122.307869,157.220093 
	C122.414101,159.557907 122.499664,161.441010 122.608521,163.836548 
	C117.431816,163.836548 112.532242,163.836548 107.311325,163.836548 
	C107.311325,168.073990 107.311325,171.834412 107.311325,175.901978 
	C104.779106,175.901978 102.571167,175.901978 100.369919,175.901978 
	C100.369919,165.419815 100.369919,155.191757 100.369919,144.698288 
	C108.351105,144.698288 116.088013,144.698288 124.198158,144.698288 
	C124.198158,146.665710 124.198158,148.550797 124.198158,151.033981 
	C120.656120,151.033981 117.060493,151.033981 112.962555,151.033997 
z"/>
<path fill="#F5F5F5" opacity="1.000000" stroke="none" 
	d="
M66.061790,152.296753 
	C73.027794,142.390137 84.038803,141.001984 93.336983,148.875977 
	C91.967407,150.479263 90.596230,152.084427 89.735641,153.091873 
	C85.643036,152.301071 82.085037,151.196686 78.503151,151.112854 
	C76.921051,151.075821 74.931396,152.814987 73.751526,154.258469 
	C70.629707,158.077789 71.200905,164.040512 74.669281,167.469330 
	C78.310814,171.069321 82.492050,170.883514 89.038025,166.562897 
	C90.350311,167.814453 91.750412,169.149750 93.129204,170.464737 
	C89.105553,176.739151 80.026337,178.716095 72.756966,175.026840 
	C64.946472,171.063004 62.204239,162.088806 66.061790,152.296753 
z"/>
<path fill="#DDB314" opacity="1.000000" stroke="none" 
	d="
M82.720680,45.937035 
	C80.847870,44.118309 79.228149,42.155033 77.853226,40.488480 
	C79.264473,39.258301 80.968552,37.772858 82.712151,36.252960 
	C84.396324,37.659019 86.214676,39.177101 87.827629,40.523705 
	C86.264160,42.220821 84.618965,44.006649 82.720680,45.937035 
z"/>
<path fill="#EABE13" opacity="1.000000" stroke="none" 
	d="
M37.311783,80.247528 
	C40.219215,83.295235 42.994766,86.592323 45.770321,89.889404 
	C40.171669,89.779190 38.812023,85.657005 37.159782,81.356834 
	C37.070095,80.856667 37.124996,80.676796 37.311783,80.247528 
z"/>
<path fill="#ECBF13" opacity="1.000000" stroke="none" 
	d="
M57.665562,36.152283 
	C56.234226,38.126175 54.466808,40.018974 52.349899,41.956230 
	C52.000404,42.000690 51.970634,41.973194 51.970634,41.973194 
	C52.014374,40.943451 52.058113,39.913708 52.051674,38.560081 
	C53.777489,37.514534 55.553486,36.792862 57.665562,36.152283 
z"/>
<path fill="#ECBF13" opacity="1.000000" stroke="none" 
	d="
M94.953979,111.174156 
	C96.369141,111.614258 97.705215,112.228523 99.150887,113.232224 
	C98.399178,114.053429 97.537872,114.485191 96.443314,114.639786 
	C95.768913,113.931648 95.327759,113.500687 94.886612,113.069733 
	C94.886612,113.069733 94.955917,113.017532 94.950554,112.716049 
	C94.928925,112.186455 94.912659,111.958351 94.896393,111.730255 
	C94.896393,111.730255 94.874908,111.348320 94.953979,111.174156 
z"/>
<path fill="#EABE13" opacity="1.000000" stroke="none" 
	d="
M83.401489,117.011803 
	C82.584946,116.437569 82.085640,115.845131 81.586334,115.252693 
	C82.702713,115.680199 83.819099,116.107704 84.962036,116.783928 
	C84.565300,117.019630 84.142014,117.006615 83.401489,117.011803 
z"/>
<path fill="#EBBE13" opacity="1.000000" stroke="none" 
	d="
M41.867188,106.696091 
	C41.999763,107.446877 41.982731,107.953362 41.940273,108.839172 
	C41.221638,108.498322 40.528431,107.778152 39.851208,106.612961 
	C39.867191,106.167938 40.147659,105.832687 40.147659,105.832687 
	C40.670967,106.039047 41.194275,106.245415 41.867188,106.696091 
z"/>
<path fill="#EABE13" opacity="1.000000" stroke="none" 
	d="
M85.507797,118.204483 
	C85.860039,117.982330 86.171768,117.984703 86.717361,117.985596 
	C86.559853,118.532494 86.168495,119.080849 85.777130,119.629211 
	C85.673843,119.229149 85.570564,118.829094 85.507797,118.204483 
z"/>
<path fill="#EDC013" opacity="1.000000" stroke="none" 
	d="
M94.935532,113.378464 
	C95.327759,113.500687 95.768913,113.931648 96.121994,114.587677 
	C95.684113,114.437561 95.334290,114.062378 94.935532,113.378464 
z"/>
<path fill="#ECBF13" opacity="1.000000" stroke="none" 
	d="
M107.890129,52.727039 
	C107.485069,53.001842 107.117577,53.002224 106.474472,53.002792 
	C106.540291,52.521862 106.881729,52.040745 107.223167,51.559628 
	C107.458008,51.857292 107.692856,52.154953 107.890129,52.727039 
z"/>
<path fill="#EBBE13" opacity="1.000000" stroke="none" 
	d="
M39.726768,106.335403 
	C39.118114,106.190979 38.649879,105.879082 37.461910,105.087753 
	C38.820732,105.212517 39.345612,105.260712 40.009079,105.570801 
	C40.147659,105.832687 39.867191,106.167938 39.726768,106.335403 
z"/>
<path fill="#EDC013" opacity="1.000000" stroke="none" 
	d="
M94.657486,111.856491 
	C94.912659,111.958351 94.928925,112.186455 94.939697,112.758049 
	C94.762329,112.728600 94.590454,112.355659 94.657486,111.856491 
z"/>
<path fill="#3E341E" opacity="1.000000" stroke="none" 
	d="
M51.010902,44.996609 
	C45.796539,56.212822 47.634094,66.583351 54.761673,76.850677 
	C54.497139,77.591591 54.238056,77.800674 53.978973,78.009758 
	C45.093925,67.620949 43.565731,56.282642 49.888939,44.616798 
	C50.517536,44.714539 50.757912,44.865608 51.010902,44.996609 
z"/>
<path fill="#453A1E" opacity="1.000000" stroke="none" 
	d="
M54.109905,78.318207 
	C54.238056,77.800674 54.497139,77.591591 54.889275,77.169136 
	C62.409100,82.544525 69.795876,88.133293 77.180428,93.720367 
	C68.257233,90.900543 60.570862,85.866669 54.109905,78.318207 
z"/>
<path fill="#242020" opacity="1.000000" stroke="none" 
	d="
M49.398331,108.555206 
	C58.276806,110.085876 67.155281,111.616547 76.644989,113.396454 
	C77.151764,114.087860 77.047318,114.530014 76.942871,114.972176 
	C67.336334,114.956078 57.876747,114.110405 48.938393,109.569641 
	C49.056133,108.930603 49.227230,108.742905 49.398331,108.555206 
z"/>
<path fill="#242020" opacity="1.000000" stroke="none" 
	d="
M66.035004,101.062691 
	C72.170097,102.699036 78.305199,104.335388 84.374100,106.416130 
	C84.104149,107.008820 83.900383,107.157104 83.696617,107.305389 
	C77.910477,105.445076 72.124336,103.584763 66.170265,101.363754 
	C66.002335,101.003059 66.035004,101.062691 66.035004,101.062691 
z"/>
<path fill="#ECBF13" opacity="1.000000" stroke="none" 
	d="
M97.904572,96.598068 
	C97.512924,97.342766 97.093040,97.769569 96.673157,98.196373 
	C95.402527,96.236015 94.131889,94.275658 92.861259,92.315308 
	C93.369003,91.932686 93.876755,91.550064 94.384506,91.167442 
	C95.548447,92.871689 96.712395,94.575935 97.904572,96.598068 
z"/>
<path fill="#ECBF13" opacity="1.000000" stroke="none" 
	d="
M90.587326,99.456879 
	C91.489189,100.410378 92.094627,101.219353 92.700073,102.028328 
	C92.382645,102.382492 92.065216,102.736649 91.747787,103.090813 
	C90.668701,102.145393 89.589607,101.199974 88.510521,100.254555 
	C89.103989,99.940491 89.697449,99.626427 90.587326,99.456879 
z"/>
<path fill="#ECBF13" opacity="1.000000" stroke="none" 
	d="
M83.267776,82.335114 
	C84.565712,82.718895 85.795990,83.413788 87.026276,84.108681 
	C86.603676,84.670547 86.181084,85.232422 85.758484,85.794289 
	C84.905693,84.744934 84.052910,83.695572 83.267776,82.335114 
z"/>
<path fill="#EABE13" opacity="1.000000" stroke="none" 
	d="
M50.064011,93.931648 
	C51.673717,94.642296 53.283424,95.352936 54.893127,96.063583 
	C54.627357,96.541725 54.361591,97.019867 54.095821,97.498009 
	C52.766129,96.565277 51.436440,95.632538 50.051781,94.351486 
	C49.996815,94.003166 50.064011,93.931648 50.064011,93.931648 
z"/>
<path fill="#ECBF13" opacity="1.000000" stroke="none" 
	d="
M82.998001,97.002716 
	C81.703369,96.394363 80.408737,95.786003 79.114105,95.177650 
	C79.455185,94.653824 79.796257,94.129997 80.137337,93.606171 
	C81.090546,94.546730 82.043755,95.487282 82.998489,96.713913 
	C83.000000,97.000000 82.998001,97.002716 82.998001,97.002716 
z"/>
<path fill="#ECBF13" opacity="1.000000" stroke="none" 
	d="
M98.191628,109.632507 
	C97.878174,108.861237 97.869858,108.167839 97.861549,107.474442 
	C98.431244,107.628105 99.000946,107.781761 99.570641,107.935410 
	C99.212685,108.527069 98.854729,109.118721 98.191628,109.632507 
z"/>
<path fill="#EABE13" opacity="1.000000" stroke="none" 
	d="
M56.863525,98.611115 
	C57.393394,97.969826 58.142143,97.482811 58.890892,96.995796 
	C59.097279,97.477341 59.303669,97.958893 59.510056,98.440437 
	C58.700840,98.548752 57.891621,98.657066 56.863525,98.611115 
z"/>
<path fill="#EBBE13" opacity="1.000000" stroke="none" 
	d="
M77.237015,115.099159 
	C77.047318,114.530014 77.151764,114.087860 77.092850,113.335617 
	C77.859825,113.486336 78.790161,113.947136 79.720505,114.407936 
	C78.990723,114.680672 78.260941,114.953407 77.237015,115.099159 
z"/>
<path fill="#ECBF13" opacity="1.000000" stroke="none" 
	d="
M97.811813,100.539917 
	C98.455063,100.592552 98.911987,100.831879 99.368912,101.071205 
	C99.175194,101.279808 98.849754,101.692390 98.808128,101.665497 
	C98.387306,101.393723 98.012909,101.050079 97.811813,100.539917 
z"/>
<path fill="#EABE13" opacity="1.000000" stroke="none" 
	d="
M49.962997,94.038727 
	C49.165936,93.725708 48.402683,93.377136 47.639431,93.028564 
	C47.792458,92.795753 48.047264,92.345596 48.083355,92.362495 
	C48.701340,92.651886 49.292282,92.999031 49.976593,93.632561 
	C50.064011,93.931648 49.996815,94.003166 49.962997,94.038727 
z"/>
<path fill="#ECBF13" opacity="1.000000" stroke="none" 
	d="
M51.242039,44.767670 
	C50.757912,44.865608 50.517536,44.714539 50.139137,44.393356 
	C50.435925,43.543373 50.883343,42.843437 51.650696,42.058350 
	C51.970634,41.973194 52.000404,42.000690 52.015228,42.015190 
	C51.844429,42.866039 51.658802,43.702389 51.242039,44.767670 
z"/>
<path fill="#EABE13" opacity="1.000000" stroke="none" 
	d="
M61.519402,100.083397 
	C61.597801,99.562378 61.828022,99.190140 62.058243,98.817894 
	C62.244762,98.988708 62.431286,99.159523 62.617805,99.330338 
	C62.302277,99.630951 61.986748,99.931564 61.519402,100.083397 
z"/>
<path fill="#242020" opacity="1.000000" stroke="none" 
	d="
M48.622047,109.393921 
	C47.609657,109.366989 46.860252,109.064423 46.125656,108.265076 
	C46.270344,107.582932 46.400219,107.397568 46.530094,107.212212 
	C47.324039,107.519943 48.117985,107.827675 49.155128,108.345306 
	C49.227230,108.742905 49.056133,108.930603 48.622047,109.393921 
z"/>
<path fill="#EABE13" opacity="1.000000" stroke="none" 
	d="
M64.931229,100.954071 
	C65.135422,100.602158 65.339607,100.250237 65.543800,99.898323 
	C65.689140,100.136734 65.834488,100.375153 66.007416,100.838127 
	C66.035004,101.062691 66.002335,101.003059 66.032593,101.018845 
	C65.892700,101.038193 65.722549,101.041763 65.271568,101.024521 
	C64.990738,101.003708 64.931229,100.954071 64.931229,100.954071 
z"/>
<path fill="#ECBF13" opacity="1.000000" stroke="none" 
	d="
M86.039986,97.028404 
	C85.850189,97.349274 85.660393,97.670143 85.470596,97.991013 
	C85.530998,97.733292 85.591400,97.475563 85.827759,97.108337 
	C86.003716,96.998840 86.039986,97.028404 86.039986,97.028404 
z"/>
<path fill="#242020" opacity="1.000000" stroke="none" 
	d="
M45.927612,108.032776 
	C45.401745,108.300240 45.111423,108.220558 44.660286,107.923462 
	C44.617077,107.590988 44.757374,107.393250 45.126442,106.912659 
	C45.657906,106.659035 45.934284,106.760155 46.357224,107.072693 
	C46.400219,107.397568 46.270344,107.582932 45.927612,108.032776 
z"/>
<path fill="#242020" opacity="1.000000" stroke="none" 
	d="
M84.638702,106.677551 
	C84.698296,106.939178 84.427086,107.383781 83.926247,107.566887 
	C83.900383,107.157104 84.104149,107.008820 84.638702,106.677551 
z"/>
<path fill="#ECBF13" opacity="1.000000" stroke="none" 
	d="
M90.511528,86.519737 
	C90.483864,86.532074 90.539192,86.507401 90.511528,86.519737 
z"/>
<path fill="#EABE13" opacity="1.000000" stroke="none" 
	d="
M65.016418,101.032722 
	C65.042099,101.061737 64.762291,101.384422 64.762291,101.384422 
	C64.762291,101.384422 64.746445,101.080330 64.838837,101.017197 
	C64.931229,100.954071 64.990738,101.003708 65.016418,101.032722 
z"/>
<path fill="#ECBF13" opacity="1.000000" stroke="none" 
	d="
M83.001389,96.998962 
	C83.002777,96.997925 83.350159,97.212685 83.350159,97.212685 
	C83.350159,97.212685 83.091255,97.197655 83.044632,97.100189 
	C82.998001,97.002716 83.000000,97.000000 83.001389,96.998962 
z"/>
<path fill="#ECBF13" opacity="1.000000" stroke="none" 
	d="
M85.988556,96.981018 
	C85.973404,96.963203 86.225388,96.632683 86.225388,96.632683 
	C86.225388,96.632683 86.226440,96.914627 86.133209,96.971512 
	C86.039986,97.028404 86.003716,96.998840 85.988556,96.981018 
z"/>
<path fill="#242020" opacity="1.000000" stroke="none" 
	d="
M80.191963,79.607414 
	C80.198997,79.339333 80.398422,79.277641 80.597839,79.215942 
	C80.526672,79.415230 80.455513,79.614517 80.191963,79.607414 
z"/>
</svg>